{"scene":0,"asset":{"generator":"ImageToStl.com","version":"2.0"},"scenes":[{"name":"Scene","nodes":[0]}],"nodes":[{"name":"Node0","children":[1]},{"name":"Node1","mesh":0}],"materials":[{"name":"Default_OBJ","pbrMetallicRoughness":{"baseColorFactor":[0.8,0.8,0.8,1.0],"metallicFactor":0.5,"roughnessFactor":0.775,"baseColorTexture":{"index":0}},"emissiveFactor":[0.0,0.0,0.0],"doubleSided":true}],"images":[{"bufferView":0,"name":"","mimeType":"image/png"}],"textures":[{"sampler":0,"source":0}],"samplers":[{"magFilter":9729,"minFilter":9987}],"meshes":[{"name":"Mesh0","primitives":[{"indices":3,"material":0,"attributes":{"POSITION":0,"NORMAL":1,"TEXCOORD_0":2}}]}],"accessors":[{"bufferView":1,"componentType":5126,"count":332,"type":"VEC3","min":[-1.03181,-0.698375,-1.275331],"max":[1.036414,1.268808,0.911072]},{"bufferView":2,"componentType":5126,"count":332,"type":"VEC3"},{"bufferView":3,"componentType":5126,"count":332,"type":"VEC2"},{"bufferView":4,"componentType":5123,"count":5292,"type":"SCALAR"}],"bufferViews":[{"buffer":0,"byteLength":134694,"byteOffset":0},{"target":34962,"buffer":0,"byteLength":3984,"byteOffset":134696},{"target":34962,"buffer":0,"byteLength":3984,"byteOffset":138680},{"target":34962,"buffer":0,"byteLength":2656,"byteOffset":142664},{"target":34963,"buffer":0,"byteLength":10584,"byteOffset":145320}],"buffers":[{"byteLength":155904,"uri":"data:application/octet-stream;base64,"}]}